<svg width="47" height="46" viewBox="0 0 47 46" fill="none" xmlns="http://www.w3.org/2000/svg">
<path d="M31.6938 24.9998V40.9999" stroke="white" stroke-width="2" stroke-linecap="round" stroke-linejoin="round"/>
<path d="M15.3302 24.9998V40.9999" stroke="white" stroke-width="2" stroke-linecap="round" stroke-linejoin="round"/>
<path d="M23.5121 28.9999V45.0001" stroke="white" stroke-width="2" stroke-linecap="round" stroke-linejoin="round"/>
<path d="M39.8757 32.1598C42.0259 31.2389 43.7868 29.6229 44.8626 27.5828C45.9385 25.5427 46.2639 23.2029 45.7841 20.956C45.3044 18.7091 44.0488 16.692 42.228 15.2433C40.4073 13.7945 38.1322 13.0023 35.7848 12.9996H33.2075C32.5591 10.5446 31.3233 8.2754 29.602 6.37909C27.8806 4.48277 25.723 3.0136 23.307 2.09268C20.891 1.17176 18.2857 0.825458 15.7059 1.08231C13.1262 1.33917 10.6457 2.19183 8.46915 3.57002C6.29255 4.94821 4.48209 6.81246 3.18699 9.00911C1.8919 11.2058 1.14925 13.6719 1.02026 16.2043C0.891271 18.7367 1.37964 21.2628 2.44511 23.5744C3.51057 25.886 5.12263 27.9169 7.14841 29.4997" stroke="white" stroke-width="2" stroke-linecap="round" stroke-linejoin="round"/>
</svg>
